<?xml version="1.0" encoding="utf-8"?>
<!-- Generator: Adobe Illustrator 21.0.2, SVG Export Plug-In . SVG Version: 6.00 Build 0)  -->
<svg version="1.1" id="Capa_1" xmlns="http://www.w3.org/2000/svg" xmlns:xlink="http://www.w3.org/1999/xlink" x="0px" y="0px"
	 viewBox="0 0 25 25" style="enable-background:new 0 0 25 25;" xml:space="preserve">
<style type="text/css">
	.st0{fill:#FFFFFF;}
</style>
<g>
	<g>
		<path class="st0" d="M12.5,0C5.6,0,0,5.6,0,12.5C0,19.4,5.6,25,12.5,25C19.4,25,25,19.4,25,12.5C25,5.6,19.4,0,12.5,0z M15.6,12.9
			h-2c0,3.2,0,7.2,0,7.2h-3c0,0,0-4,0-7.2H9.1v-2.6h1.4V8.7c0-1.2,0.6-3,3-3l2.2,0v2.5c0,0-1.4,0-1.6,0c-0.3,0-0.6,0.1-0.6,0.7v1.5
			h2.3L15.6,12.9z"/>
	</g>
</g>
</svg>
